# File created by Blade
# Date/Time:  Wed Apr 08 17:35:25 2015
# Frame Rate: 120.000 fps
#------------------------------------------------------
:FULLY-SPECIFIED
:DEGREES
1640
root 9.747791 37.730330 5.692160 182.504208 -55.812496 -135.162557
Spine -38.311031 6.659381 10.661831
Head 30.570248 -14.681198 12.669469
LeftShoulder -8.072262 22.018581 16.312751
LeftArm 23.288971 29.461418 -74.220157
LeftForeArm 18.930755 -0.000000 26.460138
LeftHand -13.751615 -0.000000 -10.440014
LeftHandThumb1 -26.253704 0.000000 33.147579
RightShoulder -41.429196 -51.377353 23.323372
RightArm 55.488541 -22.154399 48.244156
RightForeArm 9.969921 -0.000000 21.214332
RightHand 0.440069 -0.000000 22.982930
RightHandThumb1 -24.326973 -0.000000 -32.862282
LeftUpLeg -61.552731 27.920766 -12.551136
LeftLeg 19.683324 -0.000000 -0.000000
LeftFoot -12.713017 25.537815 -7.678599
LeftToeBase 5.781174 -0.000000 -0.000000
RightUpLeg -133.172507 -2.134055 47.031678
RightLeg 101.347005 -0.000000 -0.000000
RightFoot 2.124851 -12.313080 29.697464
RightToeBase 15.418144 -0.000000 -0.000000
1641
root 9.749052 37.730995 5.682974 182.258599 -55.882749 -134.932969
Spine -38.298024 6.746107 10.655069
Head 30.567466 -14.821929 12.680499
LeftShoulder -8.058353 21.996058 16.359438
LeftArm 23.300976 29.505849 -74.255726
LeftForeArm 19.090690 0.000000 26.719423
LeftHand -13.503454 -0.000000 -10.839027
LeftHandThumb1 -26.253704 0.000000 33.147579
RightShoulder -41.512788 -51.419418 23.443766
RightArm 55.358525 -22.081357 48.422104
RightForeArm 9.953046 -0.000000 21.177979
RightHand 0.561272 -0.000000 22.131043
RightHandThumb1 -24.326973 -0.000000 -32.862282
LeftUpLeg -61.524395 27.857424 -12.378286
LeftLeg 19.733490 -0.000000 -0.000000
LeftFoot -12.583350 25.632217 -7.492839
LeftToeBase 5.553584 -0.000000 -0.000000
RightUpLeg -133.141756 -2.158431 46.879235
RightLeg 100.854290 -0.000000 -0.000000
RightFoot -1.220931 -13.173918 29.035462
RightToeBase 13.424524 -0.000000 -0.000000
1642
root 9.749187 37.730254 5.672551 181.902155 -55.962769 -134.642237
Spine -38.215304 6.796147 10.715599
Head 30.569747 -14.916203 12.687955
LeftShoulder -8.048239 21.969041 16.391268
LeftArm 23.269758 29.499734 -74.347429
LeftForeArm 19.144449 -0.000000 26.975743
LeftHand -13.457209 -0.000000 -10.884082
LeftHandThumb1 -26.253704 0.000000 33.147579
RightShoulder -41.548235 -51.458233 23.518780
RightArm 55.252640 -21.988525 48.590973
RightForeArm 9.839505 -0.000000 21.125264
RightHand 0.646635 -0.000000 21.309831
RightHandThumb1 -24.326973 -0.000000 -32.862282
LeftUpLeg -61.456817 27.820937 -12.171506
LeftLeg 19.803929 -0.000000 -0.000000
LeftFoot -12.483592 25.701064 -7.302515
LeftToeBase 5.432141 -0.000000 -0.000000
RightUpLeg -133.089992 -2.306417 46.690835
RightLeg 100.411760 -0.000000 -0.000000
RightFoot -4.004204 -14.378306 27.952889
RightToeBase 10.614319 -0.000000 -0.000000
1643
root 9.747028 37.727720 5.662196 181.501187 -56.076605 -134.348614
Spine -38.103409 6.811495 10.791987
Head 30.610068 -14.990444 12.674453
LeftShoulder -8.061819 22.011385 16.382794
LeftArm 23.330880 29.536332 -74.349036
LeftForeArm 19.174459 0.000000 27.245178
LeftHand -13.432101 -0.000000 -10.868048
LeftHandThumb1 -26.253704 0.000000 33.147579
RightShoulder -41.568036 -51.497882 23.576629
RightArm 55.199273 -21.913442 48.686123
RightForeArm 9.680145 -0.000000 21.031804
RightHand 0.730411 -0.000000 20.521729
RightHandThumb1 -24.326973 -0.000000 -32.862282
LeftUpLeg -61.354060 27.785082 -11.974895
LeftLeg 19.884385 -0.000000 -0.000000
LeftFoot -12.396596 25.698981 -7.117045
LeftToeBase 5.280931 -0.000000 -0.000000
RightUpLeg -133.031360 -2.524413 46.509908
RightLeg 100.001325 -0.000000 -0.000000
RightFoot -6.627746 -16.322036 26.383041
RightToeBase 8.452687 -0.000000 -0.000000
1644
root 9.744708 37.726682 5.653682 181.187769 -56.146161 -134.109346
Spine -38.031375 6.872058 10.826376
Head 30.639033 -15.081457 12.662851
LeftShoulder -8.094539 22.054832 16.359383
LeftArm 23.384347 29.596865 -74.314662
LeftForeArm 19.064506 0.000000 27.534619
LeftHand -13.406310 -0.000000 -10.855555
LeftHandThumb1 -26.253704 0.000000 33.147579
RightShoulder -41.566836 -51.518567 23.609725
RightArm 55.148901 -21.877052 48.751371
RightForeArm 9.538847 0.000000 20.932714
RightHand 0.750672 -0.000000 19.814543
RightHandThumb1 -24.326973 -0.000000 -32.862282
LeftUpLeg -61.262270 27.762624 -11.805029
LeftLeg 19.921289 -0.000000 -0.000000
LeftFoot -12.314712 25.727237 -6.946009
LeftToeBase 5.171442 -0.000000 -0.000000
RightUpLeg -132.952027 -2.695072 46.313891
RightLeg 99.553287 -0.000000 -0.000000
RightFoot -9.325762 -18.892451 25.027532
RightToeBase 6.757452 -0.000000 -0.000000
1645
root 9.744979 37.725981 5.644381 180.916101 -56.210115 -133.911629
Spine -37.963939 6.931054 10.816270
Head 30.658855 -15.165743 12.673825
LeftShoulder -8.124747 22.067337 16.373376
LeftArm 23.414976 29.696559 -74.291145
LeftForeArm 18.982998 -0.000000 27.806569
LeftHand -13.416720 -0.000000 -10.764646
LeftHandThumb1 -26.253704 0.000000 33.147579
RightShoulder -41.551827 -51.547954 23.661460
RightArm 55.109060 -21.850728 48.805462
RightForeArm 9.392749 0.000000 20.836187
RightHand 0.807201 -0.000000 18.937927
RightHandThumb1 -24.326973 -0.000000 -32.862282
LeftUpLeg -61.219142 27.792564 -11.721168
LeftLeg 19.978351 -0.000000 -0.000000
LeftFoot -12.222617 25.671517 -6.772143
LeftToeBase 5.032404 -0.000000 -0.000000
RightUpLeg -132.890641 -2.919807 46.010815
RightLeg 99.143102 -0.000000 -0.000000
RightFoot -12.032685 -21.405086 24.360845
RightToeBase 6.172248 -0.000000 -0.000000
1646
root 9.736989 37.720428 5.634828 180.459308 -56.383223 -133.629415
Spine -37.795766 6.911512 10.890978
Head 30.681923 -15.241365 12.618003
LeftShoulder -8.126808 22.085132 16.326184
LeftArm 23.454560 29.737001 -74.275954
LeftForeArm 18.984846 -0.000000 28.054094
LeftHand -13.375299 0.000000 -10.757783
LeftHandThumb1 -26.253704 0.000000 33.147579
RightShoulder -41.552513 -51.552020 23.678999
RightArm 55.067180 -21.787655 48.890367
RightForeArm 9.127610 -0.000000 20.723069
RightHand 0.779926 -0.000000 18.295289
RightHandThumb1 -24.326973 -0.000000 -32.862282
LeftUpLeg -61.015708 27.741636 -11.530839
LeftLeg 20.019855 -0.000000 -0.000000
LeftFoot -12.141784 25.599382 -6.559958
LeftToeBase 4.924556 -0.000000 -0.000000
RightUpLeg -132.865286 -3.365059 45.756175
RightLeg 98.846957 -0.000000 -0.000000
RightFoot -14.654931 -23.821335 23.798223
RightToeBase 6.587240 -0.000000 -0.000000
1647
root 9.732390 37.718096 5.622827 180.085460 -56.515030 -133.384736
Spine -37.679876 6.932596 10.898272
Head 30.691133 -15.362374 12.614464
LeftShoulder -8.124343 22.061933 16.329763
LeftArm 23.468034 29.797877 -74.271790
LeftForeArm 18.968432 -0.000000 28.255063
LeftHand -13.286025 -0.000000 -10.784918
LeftHandThumb1 -26.253704 0.000000 33.147579
RightShoulder -41.571889 -51.541973 23.741823
RightArm 55.022092 -21.723925 48.970742
RightForeArm 8.811169 -0.000000 20.616125
RightHand 0.766768 -0.000000 17.737395
RightHandThumb1 -24.326973 -0.000000 -32.862282
LeftUpLeg -60.860310 27.714511 -11.374389
LeftLeg 20.036066 -0.000000 -0.000000
LeftFoot -12.047467 25.549979 -6.375605
LeftToeBase 4.809960 -0.000000 -0.000000
RightUpLeg -132.820094 -3.773496 45.439453
RightLeg 98.576229 -0.000000 -0.000000
RightFoot -16.895273 -25.982780 23.371968
RightToeBase 6.511407 -0.000000 -0.000000
1648
root 9.729538 37.720863 5.611059 179.788487 -56.598936 -133.151270
Spine -37.638746 7.004817 10.875935
Head 30.701860 -15.499385 12.626146
LeftShoulder -8.134924 22.082906 16.341452
LeftArm 23.516888 29.885047 -74.233488
LeftForeArm 18.869904 -0.000000 28.463614
LeftHand -13.262578 -0.000000 -10.765300
LeftHandThumb1 -26.253704 0.000000 33.147579
RightShoulder -41.568620 -51.525887 23.788224
RightArm 55.008417 -21.771582 48.933848
RightForeArm 8.228557 -0.000000 20.513587
RightHand 0.819561 -0.000000 16.879512
RightHandThumb1 -24.326973 -0.000000 -32.862282
LeftUpLeg -60.780716 27.722401 -11.261799
LeftLeg 20.036210 -0.000000 -0.000000
LeftFoot -11.945451 25.482921 -6.224009
LeftToeBase 4.662718 -0.000000 -0.000000
RightUpLeg -132.761066 -4.177552 45.033825
RightLeg 98.297085 -0.000000 -0.000000
RightFoot -18.197034 -27.745976 22.518436
RightToeBase 5.227136 -0.000000 -0.000000
1649
root 9.725452 37.724632 5.601605 179.462094 -56.722078 -132.870214
Spine -37.617660 7.049496 10.893376
Head 30.709028 -15.607631 12.618625
LeftShoulder -8.130656 22.119417 16.352100
LeftArm 23.558100 29.949978 -74.232190
LeftForeArm 18.823534 -0.000000 28.661853
LeftHand -13.301117 -0.000000 -10.696606
LeftHandThumb1 -26.253704 0.000000 33.147579
RightShoulder -41.612255 -51.532547 23.856404
RightArm 55.015738 -21.710089 48.942884
RightForeArm 7.796536 -0.000000 20.439623
RightHand 0.639880 0.000000 16.593123
RightHandThumb1 -24.326973 -0.000000 -32.862282
LeftUpLeg -60.674681 27.659210 -11.097682
LeftLeg 20.004159 -0.000000 -0.000000
LeftFoot -11.888172 25.454679 -6.147042
LeftToeBase 4.640863 -0.000000 -0.000000
RightUpLeg -132.721457 -4.578028 44.715106
RightLeg 98.077181 -0.000000 -0.000000
RightFoot -18.895630 -29.130485 21.385425
RightToeBase 4.503977 -0.000000 -0.000000
